{"title":"Fantastic Four-2(2005)BRRip[Hindi-Eng-Tamil]6CH.AC3 By !!!dip","uid":6891708,"size":1833436769,"categoryP":"video","categoryS":"hd___movies","magnet":"?xt=urn:btih:0894b5e24aa22ffdc3d087ee88f1927a5731e63e&amp;dn=Fantastic+Four-2%282005%29BRRip%5BHindi-Eng-Tamil%5D6CH.AC3+By+%21%21%21dip&amp;tr=udp%3A%2F%2Ftracker.openbittorrent.com%3A80&amp;tr=udp%3A%2F%2Fopen.demonii.com%3A1337&amp;tr=udp%3A%2F%2Ftracker.coppersurfer.tk%3A6969&amp;tr=udp%3A%2F%2Fexodus.desync.com%3A6969","seeders":0,"leechers":1,"uploader":"dipty","files":-1,"time":1323996978,"description":"                       =!DK GROUP HD BLURAY RELEAESEES!=\n \n===================================================================================\n\n      \t\nFantastic 4 Rise Of The Silver Surfer(2005)BRRip[Hindi-Eng-Tamil]6CH.AC3 By !!!dip \n\n\n===================================================================================\n\nStoryline:\n\nWith Von Doom back in his homeland of Latveria the fantastic four have new troubles when Galactus has decided that Earth is his next target. When his henchman, The Silver Surfer, is sent to Earth he discovers that he's getting more than he bargained for when he encounters the Fantastic Four. But that's not all when Dr. Doom decides that after two years in the homeland he is ready to return. Written by Gharrett Favinger  \n\nCast:\n\n\nIoan Gruffudd..............Mr. Fantastic / Reed Richards\nJessica Alba...............Invisible Woman / Susan Storm\nChris Evans................Human Torch / Johnny Storm\nMichael Chiklis............The Thing / Ben Grimm\nJulian McMahon.............Dr. Doom / Victor Von Doom\nKerry Washington...........Alicia Masters\nAndre Braugher.............General Hager\nLaurence Fishburne.........The Silver Surfer (voice)\nDoug Jones.................The Silver Surfer\nBeau Garrett...............Captain Raye\nBrian Posehn...............Wedding Minister\nZach Grenier...............Mr. Sherman / Rafke\nDawn Chubai................Anchorwoman\nChris Gailus...............Anchorman\nKevin McNulty..............Baxter Building Doorman\n\n\nDirectors :Tim Story\nWriters :Don Payne (screenplay), Mark Frost (screenplay)\nStars:Ioan Gruffudd, Jessica Alba and Chris Evans\nGenre: Action | Adventure | Fantasy\nLanguage:[English-Hindi-Tamil]6CH.AC3\nFormat :Color, Dubbed,Widescreen\nEncoder:Deep Shikha\n\n\n\n\n\nVideo Specifications:\n\n\n\nVideo\nID : 1\nFormat : AVC\nFormat/Info : Advanced Video Codec\nFormat profile : &lt;a class=&quot;__cf_email__&quot; href=&quot;/cdn-cgi/l/email-protection&quot; data-cfemail=&quot;8fc2eee6e1cfc3bca1be&quot;&gt;[email&amp;#160;protected]&lt;/a&gt;&lt;script cf-hash='f9e31' type=&quot;text/javascript&quot;&gt;\n/* &lt;![CDATA[ */!function(){try{var t=&quot;currentScript&quot;in document?document.currentScript:function(){for(var t=document.getElementsByTagName(&quot;script&quot;),e=t.length;e--;)if(t[e].getAttribute(&quot;cf-hash&quot;))return t[e]}();if(t&amp;&amp;t.previousSibling){var e,r,n,i,c=t.previousSibling,a=c.getAttribute(&quot;data-cfemail&quot;);if(a){for(e=&quot;&quot;,r=parseInt(a.substr(0,2),16),n=2;a.length-n;n+=2)i=parseInt(a.substr(n,2),16)^r,e+=String.fromCharCode(i);e=document.createTextNode(e),c.parentNode.replaceChild(e,c)}}}catch(u){}}();/* ]]&gt; */&lt;/script&gt;\nFormat settings, CABAC : Yes\nFormat settings, ReFrames : 4 frames\nFormat settings, GOP : M=3, N=32\nCodec ID : V_MPEG4/ISO/AVC\nDuration : 1h 28mn\nWidth : 1 280 pixels\nHeight : 536 pixels\nDisplay aspect ratio : 2.35:1\nFrame rate mode : Variable\nFrame rate : 25.000 fps\nColor space : YUV\nChroma subsampling : 4:2:0\nBit depth : 8 bits\nTeam : DK Group HD Bluray Releases\n\n\n\n\nAudio Specifications:\n\n\nAudio\nID : 1\nFormat : AAC\nFormat/Info : Advanced Audio Codec\nFormat profile : LC\nCodec ID : A_AAC\nDuration : 1h 28mn\nChannel(s) : 6 channels\nChannel positions : Front: L C R, Side: L R, LFE\nSampling rate : 48.0 KHz\nCompression mode : Lossy\nLanguage : English\n\n\nAudio\nID : 2\nFormat : AC-3\nFormat/Info : Audio Coding 3\nMode extension : CM (complete main)\nMuxing mode : Header stripping\nCodec ID : A_AC3\nDuration : 1h 27mn\nBit rate mode : Constant\nBit rate : 384 Kbps\nChannel(s) : 6 channels\nChannel positions : Front: L C R, Side: L R, LFE\nSampling rate : 48.0 KHz\nBit depth : 16 bits\nCompression mode : Lossy\nStream size : 242 MiB (100%)\nTitle : !!!dip\nLanguage : Hindi\n\n\nAudio\nID : 3\nFormat : AC-3\nFormat/Info : Audio Coding 3\nMode extension : CM (complete main)\nMuxing mode : Header stripping\nCodec ID : A_AC3\nDuration : 1h 27mn\nBit rate mode : Constant\nBit rate : 384 Kbps\nChannel(s) : 6 channels\nChannel positions : Front: L C R, Side: L R, LFE\nSampling rate : 48.0 KHz\nBit depth : 16 bits\nCompression mode : Lossy\nStream size : 242 MiB (100%)\nTitle : !!!dip\nLanguage : Tamil\n\n\n\nSAMPLE IMAGE:\n  &lt;a href=&quot;\nhttp://imagestorage.org/images/50122648724944500168.jpg&quot; rel=&quot;nofollow&quot; target=&quot;_NEW&quot;&gt;\nhttp://imagestorage.org/images/50122648724944500168.jpg&lt;/a&gt;\n &lt;a href=&quot;\nhttp://imagestorage.org/images/53623002365948012109.jpg&quot; rel=&quot;nofollow&quot; target=&quot;_NEW&quot;&gt;\nhttp://imagestorage.org/images/53623002365948012109.jpg&lt;/a&gt;\n &lt;a href=&quot;\nhttp://imagestorage.org/images/90042399518909707885.jpg&quot; rel=&quot;nofollow&quot; target=&quot;_NEW&quot;&gt;\nhttp://imagestorage.org/images/90042399518909707885.jpg&lt;/a&gt;\n &lt;a href=&quot;\nhttp://imagestorage.org/images/31118398303444711734.jpg&quot; rel=&quot;nofollow&quot; target=&quot;_NEW&quot;&gt;\nhttp://imagestorage.org/images/31118398303444711734.jpg&lt;/a&gt;\n &lt;a href=&quot;\nhttp://imagestorage.org/images/34053127652586613348.jpg&quot; rel=&quot;nofollow&quot; target=&quot;_NEW&quot;&gt;\nhttp://imagestorage.org/images/34053127652586613348.jpg&lt;/a&gt;\n &lt;a href=&quot;\nhttp://imagestorage.org/images/11987027298009917184.jpg&quot; rel=&quot;nofollow&quot; target=&quot;_NEW&quot;&gt;\nhttp://imagestorage.org/images/11987027298009917184.jpg&lt;/a&gt;\n\n\nVIDEO SAMPLE IS AVAILABLE\n\n\t\t\t\t\t","torrent":{"xt":"urn:btih:0894b5e24aa22ffdc3d087ee88f1927a5731e63e","amp;dn":"Fantastic+Four-2%282005%29BRRip%5BHindi-Eng-Tamil%5D6CH.AC3+By+%21%21%21dip","amp;tr":["udp%3A%2F%2Ftracker.openbittorrent.com%3A80","udp%3A%2F%2Fopen.demonii.com%3A1337","udp%3A%2F%2Ftracker.coppersurfer.tk%3A6969","udp%3A%2F%2Fexodus.desync.com%3A6969"],"infoHash":"0894b5e24aa22ffdc3d087ee88f1927a5731e63e","infoHashBuffer":{"type":"Buffer","data":[8,148,181,226,74,162,47,253,195,208,135,238,136,241,146,122,87,49,230,62]},"announce":[],"urlList":[]}}